# xmcd
#
# Track frame offsets: 
#        150
#        15882
#        27332
#        40200
#        55882
#        65866
#        78614
#        89214
#        104223
#        117187
#        131832
#        145743
#        156352
#
# Disc length: 2264 seconds
#
# Revision: 2
# Processed by: cddbd v1.5.2PL0 Copyright (c) Steve Scherf et al.
# Submitted via: ExactAudioCopyFreeDBPlugin 1.0
#
DISCID=be08d60d
DTITLE=Aretha Franklin - Tiny Sparrow:  The Bobby Scott Sessions
DYEAR=1963
DGENRE=Soul
TTITLE0=Here Today and Gone Tomorrow
TTITLE1=Please Answer Me
TTITLE2=Harbor Lights
TTITLE3=I May Never Get to Heaven
TTITLE4=Moon River
TTITLE5=I Won't Cry Anymore
TTITLE6=Bill Bailey, Won't You Please Come Home
TTITLE7=My Little Brown Book
TTITLE8=Tiny Sparrow
TTITLE9=Johnny
TTITLE10=Looking Through a Tear
TTITLE11=Bill Bailey, Won't You Please Come Home (mono)
TTITLE12=Johnny (mono)
EXTD=Tiny Sparrow: The Bobby Scott Sessions\n©  2011 Columbia/Legacy\n
EXTD=\nPreviously Unreleased\nCD Edition Released \n"Take a Look: Comp
EXTD=lete on Columbia" Collection Released March 22, 2011\n\nAMG EXPER
EXTD=T REVIEW:  "Take a Look" Aretha Franklin has simply been one of t
EXTD=he greatest singers of the modern generation, and whether bringin
EXTD=g her powerful, passionate voice to bear on gospel standards, son
EXTD=gs from the Great American Songbook, jazz standards, pop ditties,
EXTD=or deep Southern soul and R&B, she has always had the presence -
EXTD=much like Ray Charles -- to make anything she touches unmistaka
EXTD=bly hers. Franklin began her career in gospel when she was still 
EXTD=a teenager, and her amazing vocal talents, coupled with her fine 
EXTD=piano playing, marked her as a once-in-a-lifetime kind of artist,
EXTD=qualities very apparent to legendary talent scout John Hammond, 
EXTD=who signed her to Columbia Records. The problem Hammond and Colum
EXTD=bia immediately ran into, though, was how to best present that sp
EXTD=irited voice to the secular pop world. Between 1960 and 1969 (her
EXTD=first release for the label was actually in 1961), Columbia trie
EXTD=d Franklin in a variety of styles and settings, and if none of th
EXTD=em exactly caught fire the way her legendary later sides for Atla
EXTD=ntic Records would, they still allowed Franklin to explore a lot 
EXTD=of avenues, and she was too good a singer not to be at least memo
EXTD=rable in all of them. This wonderful box set includes CDs of Fran
EXTD=klin's seven full-length albums for the label, two CDs of her wor
EXTD=k with producers Bobby Scott (in 1963) and Clyde Otis (in 1964), 
EXTD=a CD of singles produced by Bob Johnston, plus rarities that were
EXTD=sweetened and released after Franklin left Columbia for Atlantic
EXTD=and a DVD featuring Franklin performing several songs at the pia
EXTD=no on The Steve Allen Show in 1964. It's a tremendous set, and it
EXTD=portrays an artist working her own way toward how to best presen
EXTD=t herself to the world. We all know she got there.  -- Steve Legg
EXTD=ett\n\nAMG EXPERT REVIEW: ("Tiny Sparrow: The Bobby Scott Session
EXTD=s")  N/A
EXTT0=
EXTT1=
EXTT2=
EXTT3=
EXTT4=
EXTT5=
EXTT6=
EXTT7=
EXTT8=
EXTT9=
EXTT10=
EXTT11=
EXTT12=
PLAYORDER=
